<svg width="46.608887" height="46.493164" viewBox="0 0 46.6089 46.4932" fill="none" xmlns="http://www.w3.org/2000/svg" xmlns:xlink="http://www.w3.org/1999/xlink">
	<desc>
			Created with Pixso.
	</desc>
	<defs/>
	<path id="Vector" d="M31.05 20.37C30.76 20.37 30.53 20.14 30.53 19.85C30.53 19.56 30.76 19.32 31.05 19.32C31.34 19.32 31.57 19.56 31.57 19.85C31.57 20.14 31.34 20.37 31.05 20.37Z" fill="#1A1A1A" fill-opacity="1.000000" fill-rule="nonzero"/>
	<path id="Vector" d="M33.2 42.42C32.96 42.42 32.79 42.25 32.79 42.02L32.79 40.39C32.79 40.16 32.96 39.99 33.2 39.99C33.43 39.99 33.6 40.16 33.6 40.39L33.6 42.02C33.6 42.25 33.43 42.42 33.2 42.42ZM13.17 42.31C12.94 42.31 12.77 42.13 12.77 41.9L12.77 40.34C12.77 40.1 12.94 39.93 13.17 39.93C13.4 39.93 13.58 40.1 13.58 40.34L13.58 41.9C13.52 42.13 13.4 42.31 13.17 42.31ZM33.2 36.21C32.96 36.21 32.79 36.04 32.79 35.81L32.79 34.24C32.79 34.01 32.96 33.83 33.2 33.83C33.43 33.83 33.6 34.01 33.6 34.24L33.6 35.81C33.6 36.04 33.43 36.21 33.2 36.21ZM13.17 36.16C12.94 36.16 12.77 35.98 12.77 35.75L12.77 34.12C12.77 33.89 12.94 33.72 13.17 33.72C13.4 33.72 13.58 33.89 13.58 34.12L13.58 35.75C13.52 35.98 13.4 36.16 13.17 36.16ZM33.2 30.12C32.96 30.12 32.79 29.95 32.79 29.71L32.79 28.09C32.79 27.86 32.96 27.68 33.2 27.68C33.43 27.68 33.6 27.86 33.6 28.09L33.6 29.71C33.6 29.95 33.43 30.12 33.2 30.12ZM13.17 30C12.94 30 12.77 29.83 12.77 29.6L12.77 28.03C12.77 27.8 12.94 27.62 13.17 27.62C13.4 27.62 13.58 27.8 13.58 28.03L13.58 29.6C13.52 29.83 13.4 30 13.17 30ZM9.4 21.3C9.17 21.3 8.99 21.12 8.99 20.89L8.99 18.68C8.99 18.45 9.17 18.28 9.4 18.28C9.63 18.28 9.8 18.45 9.8 18.68L9.8 20.89C9.8 21.12 9.63 21.3 9.4 21.3ZM6.5 21.3C6.26 21.3 6.09 21.12 6.09 20.89L6.09 18.68C6.09 18.45 6.26 18.28 6.5 18.28C6.73 18.28 6.9 18.45 6.9 18.68L6.9 20.89C6.9 21.12 6.73 21.3 6.5 21.3ZM3.42 21.3C3.19 21.3 3.01 21.12 3.01 20.89L3.01 18.68C3.01 18.45 3.19 18.28 3.42 18.28C3.65 18.28 3.83 18.45 3.83 18.68L3.83 20.89C3.83 21.12 3.65 21.3 3.42 21.3Z" fill="#1A1A1A" fill-opacity="1.000000" fill-rule="nonzero"/>
	<path id="Vector" d="M0.4 46.2C0.17 46.2 0 46.02 0 45.79C0 45.56 0.17 45.39 0.4 45.39L2.55 45.39L2.55 24.2L0.4 24.2C0.17 24.2 0 24.03 0 23.79L0 15.84C0 15.61 0.17 15.43 0.4 15.43L1.79 15.43L1.79 11.72C1.79 11.49 1.97 11.31 2.2 11.31L3.36 11.31L3.59 8.7L3.59 8.64C3.3 8.47 2.2 6.9 3.77 5.22C4.7 4.29 5.45 3.3 6.03 2.32L6.03 0.4C6.03 0.17 6.21 0 6.44 0C6.67 0 6.84 0.17 6.84 0.4L6.84 2.32C7.42 3.3 8.18 4.29 9.11 5.28C10.68 6.96 9.63 8.47 9.4 8.82L9.4 8.88L9.63 11.49L10.79 11.49C11.02 11.49 11.2 11.66 11.2 11.89L11.2 15.61L35.29 15.61L35.29 11.89C35.29 11.66 35.46 11.49 35.69 11.49L36.85 11.49L37.08 8.88L37.08 8.82C36.85 8.53 35.75 6.96 37.38 5.28C38.3 4.29 39 3.36 39.64 2.32L39.64 0.4C39.64 0.17 39.81 0 40.05 0C40.28 0 40.45 0.17 40.45 0.4L40.45 2.32C41.03 3.3 41.79 4.29 42.72 5.28C44.28 6.96 43.24 8.47 43.01 8.82L43.01 8.88L43.24 11.49L44.4 11.49C44.63 11.49 44.8 11.66 44.8 11.89L44.8 15.61L46.2 15.61C46.43 15.61 46.6 15.78 46.6 16.02L46.6 24.03C46.6 24.26 46.43 24.43 46.2 24.43L43.99 24.43L43.99 45.68L46.2 45.68C46.43 45.68 46.6 45.85 46.6 46.08C46.6 46.31 46.43 46.49 46.2 46.49L0.4 46.49L0.4 46.2ZM36.68 45.44L42.89 45.44L42.89 24.2L36.68 24.2L36.68 45.44ZM30.29 45.44L35.87 45.44L35.87 24.2L30.29 24.2L30.29 45.44ZM23.1 35.11C25.19 35.11 26.87 36.79 26.87 38.88L26.87 45.44L29.54 45.44L29.54 24.2L16.65 24.2L16.65 45.44L19.32 45.44L19.32 38.88C19.32 36.79 21.01 35.11 23.1 35.11ZM23.1 35.87C21.41 35.87 20.08 37.2 20.08 38.88L20.08 45.44L26.11 45.44L26.11 38.88C26.11 37.2 24.78 35.87 23.1 35.87ZM10.33 45.44L15.84 45.44L15.84 24.2L10.33 24.2L10.33 45.44ZM3.3 45.44L9.57 45.44L9.57 24.2L3.3 24.2L3.3 45.44ZM34.07 23.44L45.39 23.44L45.39 16.25L34.07 16.25L34.07 23.44ZM12.88 23.44L33.37 23.44L33.37 16.25L12.88 16.25L12.88 19.44L27.97 19.44C28.2 19.44 28.38 19.61 28.38 19.85C28.38 20.08 28.2 20.25 27.97 20.25L12.88 20.25L12.88 23.44ZM0.75 23.44L12.07 23.44L12.07 16.25L0.75 16.25L0.75 23.44ZM35.87 15.49L43.59 15.49L43.59 12.18L35.87 12.18L35.87 15.49ZM2.55 15.49L10.27 15.49L10.27 12.18L2.55 12.18L2.55 15.49ZM39.75 10.21C39.99 10.21 40.16 10.38 40.16 10.62L40.16 11.37L42.13 11.37L41.96 8.99L37.72 8.99L37.55 11.37L39.52 11.37L39.52 10.62C39.41 10.38 39.58 10.21 39.75 10.21ZM6.44 10.27C6.67 10.27 6.84 10.44 6.84 10.68L6.84 11.43L8.82 11.43L8.64 9.05L4.41 9.05L4.23 11.43L6.21 11.43L6.21 10.68C6.03 10.44 6.21 10.27 6.44 10.27ZM39.64 3.25C39.12 4.12 38.42 4.93 37.67 5.74C36.62 6.84 37.14 7.83 37.43 8.24L37.49 8.3L42.13 8.3L42.19 8.24C42.48 7.89 43.01 6.84 41.96 5.74C41.15 4.93 40.51 4.12 39.99 3.25L39.87 3.07L39.64 3.25ZM6.32 3.25C5.8 4.12 5.1 4.93 4.35 5.74C3.3 6.84 3.83 7.83 4.12 8.24L4.17 8.3L8.76 8.3L8.82 8.24C9.11 7.89 9.63 6.84 8.59 5.74C7.77 4.93 7.13 4.12 6.61 3.25L6.5 3.07L6.32 3.25Z" fill="#1A1A1A" fill-opacity="1.000000" fill-rule="nonzero"/>
	<path id="Vector" d="M42.71 21.3C42.48 21.3 42.31 21.12 42.31 20.89L42.31 18.68C42.31 18.45 42.48 18.28 42.71 18.28C42.95 18.28 43.12 18.45 43.12 18.68L43.12 20.89C43.12 21.12 42.95 21.3 42.71 21.3ZM39.81 21.3C39.58 21.3 39.41 21.12 39.41 20.89L39.41 18.68C39.41 18.45 39.58 18.28 39.81 18.28C40.04 18.28 40.22 18.45 40.22 18.68L40.22 20.89C40.22 21.12 40.04 21.3 39.81 21.3ZM36.79 21.3C36.56 21.3 36.39 21.12 36.39 20.89L36.39 18.68C36.39 18.45 36.56 18.28 36.79 18.28C37.03 18.28 37.2 18.45 37.2 18.68L37.2 20.89C37.14 21.12 36.97 21.3 36.79 21.3ZM29.07 11.6C28.84 11.6 28.67 11.43 28.67 11.2L28.67 10.56C28.67 10.33 28.84 10.15 29.07 10.15C29.31 10.15 29.48 10.33 29.48 10.56L29.48 11.2C29.42 11.43 29.25 11.6 29.07 11.6ZM30.35 9.63C30.12 9.63 29.95 9.46 29.95 9.22C29.95 8.99 30.12 8.82 30.35 8.82L30.99 8.82C31.22 8.82 31.4 8.99 31.4 9.22C31.4 9.46 31.22 9.63 30.99 9.63L30.35 9.63ZM27.04 9.63C26.81 9.63 26.64 9.46 26.64 9.22C26.64 8.99 26.81 8.82 27.04 8.82L27.68 8.82C27.91 8.82 28.09 8.99 28.09 9.22C28.09 9.46 27.91 9.63 27.68 9.63L27.04 9.63ZM29.07 8.3C28.84 8.3 28.67 8.12 28.67 7.89L28.67 7.25C28.67 7.02 28.84 6.84 29.07 6.84C29.31 6.84 29.48 7.02 29.48 7.25L29.48 7.89C29.42 8.12 29.25 8.3 29.07 8.3ZM17.12 6.61C16.89 6.61 16.71 6.44 16.71 6.21L16.71 5.63C16.71 5.39 16.89 5.22 17.12 5.22C17.35 5.22 17.52 5.39 17.52 5.63L17.52 6.26C17.52 6.44 17.35 6.61 17.12 6.61ZM18.45 4.64C18.22 4.64 18.05 4.46 18.05 4.23C18.05 4 18.22 3.83 18.45 3.83L19.15 3.83C19.38 3.83 19.56 4 19.56 4.23C19.5 4.46 19.32 4.64 19.15 4.64L18.45 4.64ZM15.14 4.64C14.91 4.64 14.74 4.46 14.74 4.23C14.74 4 14.91 3.83 15.14 3.83L15.78 3.83C16.01 3.83 16.19 4 16.19 4.23C16.19 4.46 16.01 4.64 15.78 4.64L15.14 4.64ZM17.12 3.3C16.89 3.3 16.71 3.13 16.71 2.9L16.71 2.32C16.71 2.08 16.89 1.91 17.12 1.91C17.35 1.91 17.52 2.08 17.52 2.32L17.52 2.96C17.52 3.13 17.35 3.3 17.12 3.3Z" fill="#1A1A1A" fill-opacity="1.000000" fill-rule="nonzero"/>
</svg>
