<svg width="42.020020" height="42.020264" viewBox="0 0 42.02 42.0203" fill="none" xmlns="http://www.w3.org/2000/svg" xmlns:xlink="http://www.w3.org/1999/xlink">
	<desc>
			Created with Pixso.
	</desc>
	<defs>
		<clipPath id="clip243_144">
			<rect id="Frame" width="42.020203" height="42.020203" fill="white" fill-opacity="0"/>
		</clipPath>
	</defs>
	<rect id="Frame" width="42.020203" height="42.020203" fill="#FFFFFF" fill-opacity="0"/>
	<g clip-path="url(#clip243_144)">
		<path id="Vector" d="M29.76 35.01C27.34 35.01 25.38 33.05 25.38 30.63C25.38 28.22 27.34 26.26 29.76 26.26C32.18 26.26 34.14 28.22 34.14 30.63C34.14 33.05 32.18 35.01 29.76 35.01Z" stroke="#1A1A1A" stroke-opacity="1.000000" stroke-width="1.500000"/>
		<path id="Vector" d="M29.76 35.01C27.34 35.01 25.38 33.05 25.38 30.63C25.38 28.22 27.34 26.26 29.76 26.26C32.18 26.26 34.14 28.22 34.14 30.63C34.14 33.05 32.18 35.01 29.76 35.01Z" stroke="#000000" stroke-opacity="0.200000" stroke-width="1.500000"/>
		<path id="Vector" d="M12.25 35.01C9.83 35.01 7.87 33.05 7.87 30.63C7.87 28.22 9.83 26.26 12.25 26.26C14.67 26.26 16.63 28.22 16.63 30.63C16.63 33.05 14.67 35.01 12.25 35.01Z" stroke="#1A1A1A" stroke-opacity="1.000000" stroke-width="1.500000"/>
		<path id="Vector" d="M12.25 35.01C9.83 35.01 7.87 33.05 7.87 30.63C7.87 28.22 9.83 26.26 12.25 26.26C14.67 26.26 16.63 28.22 16.63 30.63C16.63 33.05 14.67 35.01 12.25 35.01Z" stroke="#000000" stroke-opacity="0.200000" stroke-width="1.500000"/>
		<path id="Vector" d="M25.38 30.63L16.63 30.63M34.14 30.63L35.47 30.63C35.86 30.63 36.05 30.63 36.21 30.61C37.4 30.47 38.34 29.53 38.49 28.33C38.51 28.17 38.51 27.98 38.51 27.59L38.51 22.76C38.51 16.47 33.42 11.38 27.13 11.38M3.5 7L21 7C23.48 7 24.72 7 25.49 7.77C26.26 8.54 26.26 9.77 26.26 12.25L26.26 27.13M3.5 22.32L3.5 26.26C3.5 27.89 3.5 28.71 3.85 29.32C4.08 29.72 4.41 30.05 4.81 30.28C5.42 30.63 6.24 30.63 7.87 30.63" stroke="#1A1A1A" stroke-opacity="1.000000" stroke-width="1.500000" stroke-linejoin="round" stroke-linecap="round"/>
		<path id="Vector" d="M25.38 30.63L16.63 30.63M34.14 30.63L35.47 30.63C35.86 30.63 36.05 30.63 36.21 30.61C37.4 30.47 38.34 29.53 38.49 28.33C38.51 28.17 38.51 27.98 38.51 27.59L38.51 22.76C38.51 16.47 33.42 11.38 27.13 11.38M3.5 7L21 7C23.48 7 24.72 7 25.49 7.77C26.26 8.54 26.26 9.77 26.26 12.25L26.26 27.13M3.5 22.32L3.5 26.26C3.5 27.89 3.5 28.71 3.85 29.32C4.08 29.72 4.41 30.05 4.81 30.28C5.42 30.63 6.24 30.63 7.87 30.63" stroke="#000000" stroke-opacity="0.200000" stroke-width="1.500000" stroke-linejoin="round" stroke-linecap="round"/>
		<path id="Vector" d="M3.5 12.25L14 12.25M3.5 17.5L10.5 17.5" stroke="#1A1A1A" stroke-opacity="1.000000" stroke-width="1.500000" stroke-linejoin="round" stroke-linecap="round"/>
		<path id="Vector" d="M3.5 12.25L14 12.25M3.5 17.5L10.5 17.5" stroke="#000000" stroke-opacity="0.200000" stroke-width="1.500000" stroke-linejoin="round" stroke-linecap="round"/>
	</g>
</svg>
