<svg width="51.000000" height="51.000000" viewBox="0 0 51 51" fill="none" xmlns="http://www.w3.org/2000/svg" xmlns:xlink="http://www.w3.org/1999/xlink">
	<desc>
			Created with Pixso.
	</desc>
	<defs>
		<clipPath id="clip243_243">
			<rect id="Frame" width="24.000000" height="24.000000" transform="matrix(-1 0 0 1 37.5 13.5)" fill="white" fill-opacity="0"/>
		</clipPath>
	</defs>
	<rect id="Frame" width="24.000000" height="24.000000" transform="matrix(-1 0 0 1 37.5 13.5)" fill="#FFFFFF" fill-opacity="0"/>
	<g clip-path="url(#clip243_243)">
		<path id="Vector" d="M17.5 25.5L33.5 25.5" stroke="#1A1A1A" stroke-opacity="1.000000" stroke-width="1.265625" stroke-linejoin="round" stroke-linecap="round"/>
		<path id="Vector" d="M17.5 25.5L33.5 25.5" stroke="#000000" stroke-opacity="0.200000" stroke-width="1.265625" stroke-linejoin="round" stroke-linecap="round"/>
		<path id="Vector" d="M22.5 30.5C22.5 30.5 17.5 26.81 17.5 25.5C17.5 24.18 22.5 20.5 22.5 20.5" stroke="#1A1A1A" stroke-opacity="1.000000" stroke-width="1.265625" stroke-linejoin="round" stroke-linecap="round"/>
		<path id="Vector" d="M22.5 30.5C22.5 30.5 17.5 26.81 17.5 25.5C17.5 24.18 22.5 20.5 22.5 20.5" stroke="#000000" stroke-opacity="0.200000" stroke-width="1.265625" stroke-linejoin="round" stroke-linecap="round"/>
	</g>
	<rect id="Frame 432" rx="25.078125" width="50.156250" height="50.156250" transform="matrix(-1 0 0 1 51.4219 0.421875)" stroke="#1A1A1A" stroke-opacity="1.000000" stroke-width="0.843750"/>
	<rect id="Frame 432" rx="25.078125" width="50.156250" height="50.156250" transform="matrix(-1 0 0 1 51.4219 0.421875)" stroke="#000000" stroke-opacity="0.200000" stroke-width="0.843750"/>
</svg>
