<svg width="42.020020" height="42.020264" viewBox="0 0 42.02 42.0203" fill="none" xmlns="http://www.w3.org/2000/svg" xmlns:xlink="http://www.w3.org/1999/xlink">
	<desc>
			Created with Pixso.
	</desc>
	<defs>
		<clipPath id="clip243_136">
			<rect id="Frame" width="42.020203" height="42.020203" fill="white" fill-opacity="0"/>
		</clipPath>
	</defs>
	<rect id="Frame" width="42.020203" height="42.020203" fill="#FFFFFF" fill-opacity="0"/>
	<g clip-path="url(#clip243_136)">
		<path id="Vector" d="M38.51 21C38.51 30.67 30.67 38.51 21 38.51C11.34 38.51 3.5 30.67 3.5 21M14.88 4.6C16.78 3.89 18.85 3.5 21 3.5C23.16 3.5 25.23 3.89 27.13 4.6" stroke="#1A1A1A" stroke-opacity="1.000000" stroke-width="1.500000" stroke-linejoin="round" stroke-linecap="round"/>
		<path id="Vector" d="M38.51 21C38.51 30.67 30.67 38.51 21 38.51C11.34 38.51 3.5 30.67 3.5 21M14.88 4.6C16.78 3.89 18.85 3.5 21 3.5C23.16 3.5 25.23 3.89 27.13 4.6" stroke="#000000" stroke-opacity="0.200000" stroke-width="1.500000" stroke-linejoin="round" stroke-linecap="round"/>
		<path id="Vector" d="M14.08 11.37C14.21 11.63 14.54 11.88 14.83 11.93L16.5 12.21C17.58 12.39 17.83 13.17 17.06 13.95L15.75 15.26C15.53 15.48 15.41 15.91 15.48 16.22L15.85 17.84C16.15 19.13 15.47 19.63 14.34 18.95L12.77 18.02C12.49 17.85 12.02 17.85 11.73 18.02L10.16 18.95C9.04 19.63 8.35 19.12 8.65 17.84L9.02 16.22C9.09 15.91 8.97 15.48 8.75 15.26L7.44 13.95C6.68 13.17 6.92 12.39 8 12.21L9.67 11.93C9.95 11.88 10.29 11.63 10.41 11.37L11.34 9.51C11.84 8.5 12.66 8.5 13.16 9.51L14.08 11.37Z" stroke="#1A1A1A" stroke-opacity="1.000000" stroke-width="1.500000" stroke-linejoin="round"/>
		<path id="Vector" d="M14.08 11.37C14.21 11.63 14.54 11.88 14.83 11.93L16.5 12.21C17.58 12.39 17.83 13.17 17.06 13.95L15.75 15.26C15.53 15.48 15.41 15.91 15.48 16.22L15.85 17.84C16.15 19.13 15.47 19.63 14.34 18.95L12.77 18.02C12.49 17.85 12.02 17.85 11.73 18.02L10.16 18.95C9.04 19.63 8.35 19.12 8.65 17.84L9.02 16.22C9.09 15.91 8.97 15.48 8.75 15.26L7.44 13.95C6.68 13.17 6.92 12.39 8 12.21L9.67 11.93C9.95 11.88 10.29 11.63 10.41 11.37L11.34 9.51C11.84 8.5 12.66 8.5 13.16 9.51L14.08 11.37Z" stroke="#000000" stroke-opacity="0.200000" stroke-width="1.500000" stroke-linejoin="round"/>
		<path id="Vector" d="M31.59 11.37C31.72 11.63 32.05 11.88 32.34 11.93L34.01 12.21C35.08 12.39 35.34 13.17 34.56 13.95L33.26 15.26C33.04 15.48 32.92 15.91 32.99 16.22L33.36 17.84C33.66 19.13 32.98 19.63 31.85 18.95L30.28 18.02C29.99 17.85 29.53 17.85 29.24 18.02L27.67 18.95C26.54 19.63 25.86 19.12 26.16 17.84L26.53 16.22C26.6 15.91 26.48 15.48 26.26 15.26L24.95 13.95C24.19 13.17 24.43 12.39 25.5 12.21L27.18 11.93C27.46 11.88 27.79 11.63 27.92 11.37L28.84 9.51C29.35 8.5 30.17 8.5 30.67 9.51L31.59 11.37Z" stroke="#1A1A1A" stroke-opacity="1.000000" stroke-width="1.500000" stroke-linejoin="round"/>
		<path id="Vector" d="M31.59 11.37C31.72 11.63 32.05 11.88 32.34 11.93L34.01 12.21C35.08 12.39 35.34 13.17 34.56 13.95L33.26 15.26C33.04 15.48 32.92 15.91 32.99 16.22L33.36 17.84C33.66 19.13 32.98 19.63 31.85 18.95L30.28 18.02C29.99 17.85 29.53 17.85 29.24 18.02L27.67 18.95C26.54 19.63 25.86 19.12 26.16 17.84L26.53 16.22C26.6 15.91 26.48 15.48 26.26 15.26L24.95 13.95C24.19 13.17 24.43 12.39 25.5 12.21L27.18 11.93C27.46 11.88 27.79 11.63 27.92 11.37L28.84 9.51C29.35 8.5 30.17 8.5 30.67 9.51L31.59 11.37Z" stroke="#000000" stroke-opacity="0.200000" stroke-width="1.500000" stroke-linejoin="round"/>
		<path id="Vector" d="M14 26.26C15.6 28.38 18.14 29.76 21 29.76C23.87 29.76 26.41 28.38 28.01 26.26" stroke="#1A1A1A" stroke-opacity="1.000000" stroke-width="1.500000" stroke-linejoin="round" stroke-linecap="round"/>
		<path id="Vector" d="M14 26.26C15.6 28.38 18.14 29.76 21 29.76C23.87 29.76 26.41 28.38 28.01 26.26" stroke="#000000" stroke-opacity="0.200000" stroke-width="1.500000" stroke-linejoin="round" stroke-linecap="round"/>
	</g>
</svg>
