<svg width="146.000000" height="38.000000" viewBox="0 0 146 38" fill="none" xmlns="http://www.w3.org/2000/svg" xmlns:xlink="http://www.w3.org/1999/xlink">
	<desc>
			Created with Pixso.
	</desc>
	<defs>
		<clipPath id="clip243_321">
			<rect id="Facebook" width="18.000000" height="18.000000" transform="translate(10.000000 10.000000)" fill="white" fill-opacity="0"/>
		</clipPath>
		<clipPath id="clip243_324">
			<rect id="Insta" width="18.000000" height="18.000000" transform="translate(64.000000 10.000000)" fill="white" fill-opacity="0"/>
		</clipPath>
		<clipPath id="clip243_327">
			<rect id="Youtube" width="18.000000" height="18.000000" transform="translate(118.000000 10.000000)" fill="white" fill-opacity="0"/>
		</clipPath>
	</defs>
	<circle id="Ellipse 6" cx="19.000000" cy="19.000000" r="19.000000" fill="#F2F4F6" fill-opacity="1.000000"/>
	<circle id="Ellipse 6" cx="19.000000" cy="19.000000" r="18.500000" stroke="#000000" stroke-opacity="0" stroke-width="1.000000"/>
	<rect id="Facebook" width="18.000000" height="18.000000" transform="translate(10.000000 10.000000)" fill="#FFFFFF" fill-opacity="0"/>
	<g clip-path="url(#clip243_321)">
		<path id="Vector" d="M22.85 11.61L22.85 13.99L21.43 13.99C21.39 13.98 21.33 13.98 21.27 13.98C20.93 13.98 20.62 14.1 20.39 14.31L20.39 14.31C20.22 14.55 20.12 14.85 20.12 15.17C20.12 15.21 20.12 15.25 20.12 15.29L20.12 15.28L20.12 16.99L22.76 16.99L22.41 19.66L20.12 19.66L20.12 26.49L17.36 26.49L17.36 19.65L15.06 19.65L15.06 16.99L17.36 16.99L17.36 15.02C17.36 14.96 17.36 14.88 17.36 14.81C17.36 13.89 17.72 13.05 18.3 12.42L18.3 12.42C18.91 11.85 19.73 11.5 20.63 11.5C20.69 11.5 20.75 11.5 20.8 11.5L20.79 11.5C20.87 11.5 20.95 11.5 21.04 11.5C21.68 11.5 22.31 11.54 22.92 11.62L22.85 11.61L22.85 11.61Z" fill="#1A1A1A" fill-opacity="1.000000" fill-rule="nonzero"/>
		<path id="Vector" d="M22.85 11.61L22.85 13.99L21.43 13.99C21.39 13.98 21.33 13.98 21.27 13.98C20.93 13.98 20.62 14.1 20.39 14.31L20.39 14.31C20.22 14.55 20.12 14.85 20.12 15.17C20.12 15.21 20.12 15.25 20.12 15.29L20.12 15.28L20.12 16.99L22.76 16.99L22.41 19.66L20.12 19.66L20.12 26.49L17.36 26.49L17.36 19.65L15.06 19.65L15.06 16.99L17.36 16.99L17.36 15.02C17.36 14.96 17.36 14.88 17.36 14.81C17.36 13.89 17.72 13.05 18.3 12.42L18.3 12.42C18.91 11.85 19.73 11.5 20.63 11.5C20.69 11.5 20.75 11.5 20.8 11.5L20.79 11.5C20.87 11.5 20.95 11.5 21.04 11.5C21.68 11.5 22.31 11.54 22.92 11.62L22.85 11.61L22.85 11.61Z" fill="#000000" fill-opacity="0.200000" fill-rule="nonzero"/>
	</g>
	<circle id="Ellipse 6" cx="73.000000" cy="19.000000" r="19.000000" fill="#F2F4F6" fill-opacity="1.000000"/>
	<circle id="Ellipse 6" cx="73.000000" cy="19.000000" r="18.500000" stroke="#000000" stroke-opacity="0" stroke-width="1.000000"/>
	<rect id="Insta" width="18.000000" height="18.000000" transform="translate(64.000000 10.000000)" fill="#FFFFFF" fill-opacity="0"/>
	<g clip-path="url(#clip243_324)">
		<path id="Vector" d="M77 14.09C76.82 14.09 76.65 14.14 76.5 14.24C76.35 14.34 76.24 14.48 76.17 14.65C76.1 14.81 76.08 14.99 76.12 15.17C76.15 15.34 76.24 15.5 76.36 15.63C76.49 15.75 76.65 15.84 76.83 15.87C77 15.91 77.18 15.89 77.35 15.82C77.51 15.75 77.65 15.64 77.75 15.49C77.85 15.34 77.9 15.17 77.9 14.99C77.9 14.75 77.81 14.52 77.64 14.35C77.47 14.19 77.24 14.09 77 14.09ZM80.45 15.91C80.44 15.28 80.32 14.67 80.11 14.08C79.92 13.58 79.62 13.13 79.24 12.76C78.86 12.37 78.41 12.08 77.91 11.89C77.33 11.67 76.71 11.55 76.09 11.54C75.29 11.5 75.04 11.5 73 11.5C70.96 11.5 70.7 11.5 69.91 11.54C69.28 11.55 68.67 11.67 68.08 11.89C67.58 12.08 67.13 12.37 66.76 12.76C66.37 13.13 66.08 13.58 65.89 14.08C65.67 14.67 65.55 15.28 65.54 15.91C65.5 16.7 65.5 16.96 65.5 19C65.5 21.04 65.5 21.29 65.54 22.09C65.55 22.71 65.67 23.33 65.89 23.91C66.08 24.41 66.37 24.86 66.76 25.24C67.13 25.62 67.58 25.91 68.08 26.1C68.67 26.32 69.28 26.44 69.91 26.45C70.7 26.5 70.96 26.5 73 26.5C75.04 26.5 75.29 26.5 76.09 26.45C76.71 26.44 77.33 26.32 77.91 26.1C78.41 25.92 78.86 25.62 79.24 25.24C79.62 24.86 79.92 24.41 80.11 23.91C80.32 23.32 80.44 22.71 80.45 22.09C80.45 21.29 80.5 21.04 80.5 19C80.5 16.96 80.5 16.7 80.45 15.91ZM79.1 22C79.1 22.47 79.01 22.94 78.85 23.39C78.73 23.72 78.53 24.01 78.28 24.25C78.04 24.5 77.75 24.69 77.42 24.82C76.97 24.98 76.5 25.07 76.03 25.07C75.28 25.11 75 25.12 73.03 25.12C71.05 25.12 70.78 25.12 70.03 25.07C69.53 25.08 69.04 25 68.57 24.85C68.26 24.72 67.98 24.53 67.75 24.28C67.5 24.04 67.31 23.75 67.19 23.42C67.01 22.97 66.91 22.48 66.89 22C66.89 21.25 66.85 20.97 66.85 19C66.85 17.02 66.85 16.75 66.89 16C66.89 15.51 66.98 15.03 67.15 14.57C67.29 14.25 67.49 13.97 67.75 13.75C67.97 13.49 68.26 13.28 68.57 13.15C69.03 12.98 69.51 12.89 70 12.89C70.75 12.89 71.02 12.85 73 12.85C74.97 12.85 75.25 12.85 76 12.89C76.47 12.9 76.94 12.98 77.39 13.15C77.73 13.27 78.04 13.48 78.28 13.75C78.53 13.98 78.72 14.26 78.85 14.57C79.01 15.03 79.1 15.51 79.1 16C79.14 16.75 79.15 17.02 79.15 19C79.15 20.97 79.14 21.25 79.1 22ZM73 15.15C72.24 15.15 71.49 15.38 70.86 15.8C70.23 16.22 69.74 16.83 69.45 17.53C69.16 18.23 69.08 19.01 69.23 19.75C69.38 20.5 69.75 21.18 70.29 21.72C70.82 22.26 71.51 22.62 72.26 22.77C73 22.92 73.77 22.84 74.48 22.55C75.18 22.26 75.78 21.77 76.2 21.13C76.63 20.5 76.85 19.76 76.85 19C76.85 18.49 76.75 17.99 76.56 17.52C76.37 17.05 76.08 16.63 75.72 16.27C75.37 15.91 74.94 15.63 74.47 15.44C74 15.24 73.5 15.15 73 15.15ZM73 21.49C72.5 21.49 72.02 21.35 71.61 21.07C71.2 20.8 70.88 20.41 70.69 19.95C70.5 19.5 70.45 18.99 70.55 18.51C70.64 18.02 70.88 17.58 71.23 17.23C71.58 16.88 72.02 16.64 72.51 16.55C72.99 16.45 73.5 16.5 73.95 16.69C74.41 16.88 74.8 17.2 75.07 17.61C75.35 18.02 75.49 18.5 75.49 19C75.49 19.32 75.43 19.65 75.3 19.95C75.18 20.25 74.99 20.53 74.76 20.76C74.53 20.99 74.25 21.18 73.95 21.3C73.65 21.43 73.32 21.49 73 21.49Z" fill="#1A1A1A" fill-opacity="1.000000" fill-rule="nonzero"/>
		<path id="Vector" d="M77 14.09C76.82 14.09 76.65 14.14 76.5 14.24C76.35 14.34 76.24 14.48 76.17 14.65C76.1 14.81 76.08 14.99 76.12 15.17C76.15 15.34 76.24 15.5 76.36 15.63C76.49 15.75 76.65 15.84 76.83 15.87C77 15.91 77.18 15.89 77.35 15.82C77.51 15.75 77.65 15.64 77.75 15.49C77.85 15.34 77.9 15.17 77.9 14.99C77.9 14.75 77.81 14.52 77.64 14.35C77.47 14.19 77.24 14.09 77 14.09ZM80.45 15.91C80.44 15.28 80.32 14.67 80.11 14.08C79.92 13.58 79.62 13.13 79.24 12.76C78.86 12.37 78.41 12.08 77.91 11.89C77.33 11.67 76.71 11.55 76.09 11.54C75.29 11.5 75.04 11.5 73 11.5C70.96 11.5 70.7 11.5 69.91 11.54C69.28 11.55 68.67 11.67 68.08 11.89C67.58 12.08 67.13 12.37 66.76 12.76C66.37 13.13 66.08 13.58 65.89 14.08C65.67 14.67 65.55 15.28 65.54 15.91C65.5 16.7 65.5 16.96 65.5 19C65.5 21.04 65.5 21.29 65.54 22.09C65.55 22.71 65.67 23.33 65.89 23.91C66.08 24.41 66.37 24.86 66.76 25.24C67.13 25.62 67.58 25.91 68.08 26.1C68.67 26.32 69.28 26.44 69.91 26.45C70.7 26.5 70.96 26.5 73 26.5C75.04 26.5 75.29 26.5 76.09 26.45C76.71 26.44 77.33 26.32 77.91 26.1C78.41 25.92 78.86 25.62 79.24 25.24C79.62 24.86 79.92 24.41 80.11 23.91C80.32 23.32 80.44 22.71 80.45 22.09C80.45 21.29 80.5 21.04 80.5 19C80.5 16.96 80.5 16.7 80.45 15.91ZM79.1 22C79.1 22.47 79.01 22.94 78.85 23.39C78.73 23.72 78.53 24.01 78.28 24.25C78.04 24.5 77.75 24.69 77.42 24.82C76.97 24.98 76.5 25.07 76.03 25.07C75.28 25.11 75 25.12 73.03 25.12C71.05 25.12 70.78 25.12 70.03 25.07C69.53 25.08 69.04 25 68.57 24.85C68.26 24.72 67.98 24.53 67.75 24.28C67.5 24.04 67.31 23.75 67.19 23.42C67.01 22.97 66.91 22.48 66.89 22C66.89 21.25 66.85 20.97 66.85 19C66.85 17.02 66.85 16.75 66.89 16C66.89 15.51 66.98 15.03 67.15 14.57C67.29 14.25 67.49 13.97 67.75 13.75C67.97 13.49 68.26 13.28 68.57 13.15C69.03 12.98 69.51 12.89 70 12.89C70.75 12.89 71.02 12.85 73 12.85C74.97 12.85 75.25 12.85 76 12.89C76.47 12.9 76.94 12.98 77.39 13.15C77.73 13.27 78.04 13.48 78.28 13.75C78.53 13.98 78.72 14.26 78.85 14.57C79.01 15.03 79.1 15.51 79.1 16C79.14 16.75 79.15 17.02 79.15 19C79.15 20.97 79.14 21.25 79.1 22ZM73 15.15C72.24 15.15 71.49 15.38 70.86 15.8C70.23 16.22 69.74 16.83 69.45 17.53C69.16 18.23 69.08 19.01 69.23 19.75C69.38 20.5 69.75 21.18 70.29 21.72C70.82 22.26 71.51 22.62 72.26 22.77C73 22.92 73.77 22.84 74.48 22.55C75.18 22.26 75.78 21.77 76.2 21.13C76.63 20.5 76.85 19.76 76.85 19C76.85 18.49 76.75 17.99 76.56 17.52C76.37 17.05 76.08 16.63 75.72 16.27C75.37 15.91 74.94 15.63 74.47 15.44C74 15.24 73.5 15.15 73 15.15ZM73 21.49C72.5 21.49 72.02 21.35 71.61 21.07C71.2 20.8 70.88 20.41 70.69 19.95C70.5 19.5 70.45 18.99 70.55 18.51C70.64 18.02 70.88 17.58 71.23 17.23C71.58 16.88 72.02 16.64 72.51 16.55C72.99 16.45 73.5 16.5 73.95 16.69C74.41 16.88 74.8 17.2 75.07 17.61C75.35 18.02 75.49 18.5 75.49 19C75.49 19.32 75.43 19.65 75.3 19.95C75.18 20.25 74.99 20.53 74.76 20.76C74.53 20.99 74.25 21.18 73.95 21.3C73.65 21.43 73.32 21.49 73 21.49Z" fill="#000000" fill-opacity="0.200000" fill-rule="nonzero"/>
	</g>
	<circle id="Ellipse 6" cx="127.000000" cy="19.000000" r="19.000000" fill="#F2F4F6" fill-opacity="1.000000"/>
	<circle id="Ellipse 6" cx="127.000000" cy="19.000000" r="18.500000" stroke="#000000" stroke-opacity="0" stroke-width="1.000000"/>
	<rect id="Youtube" width="18.000000" height="18.000000" transform="translate(118.000000 10.000000)" fill="#FFFFFF" fill-opacity="0"/>
	<g clip-path="url(#clip243_327)">
		<path id="Vector" d="M135.24 17.28C135.28 16.2 135.05 15.14 134.56 14.18C134.23 13.79 133.78 13.52 133.27 13.43C131.18 13.24 129.09 13.16 126.99 13.2C124.91 13.16 122.82 13.24 120.74 13.42C120.33 13.5 119.95 13.69 119.64 13.98C118.97 14.6 118.89 15.66 118.82 16.56C118.71 18.18 118.71 19.81 118.82 21.42C118.84 21.93 118.92 22.43 119.04 22.92C119.13 23.3 119.32 23.65 119.58 23.94C119.88 24.25 120.27 24.45 120.69 24.53C122.31 24.73 123.94 24.81 125.57 24.78C128.19 24.81 130.5 24.78 133.22 24.57C133.65 24.49 134.05 24.29 134.37 23.98C134.58 23.77 134.73 23.51 134.82 23.23C135.09 22.41 135.22 21.55 135.21 20.68C135.24 20.26 135.24 17.73 135.24 17.28ZM125.3 21.13L125.3 16.49L129.74 18.82C128.49 19.51 126.85 20.29 125.3 21.13Z" fill="#1A1A1A" fill-opacity="1.000000" fill-rule="nonzero"/>
		<path id="Vector" d="M135.24 17.28C135.28 16.2 135.05 15.14 134.56 14.18C134.23 13.79 133.78 13.52 133.27 13.43C131.18 13.24 129.09 13.16 126.99 13.2C124.91 13.16 122.82 13.24 120.74 13.42C120.33 13.5 119.95 13.69 119.64 13.98C118.97 14.6 118.89 15.66 118.82 16.56C118.71 18.18 118.71 19.81 118.82 21.42C118.84 21.93 118.92 22.43 119.04 22.92C119.13 23.3 119.32 23.65 119.58 23.94C119.88 24.25 120.27 24.45 120.69 24.53C122.31 24.73 123.94 24.81 125.57 24.78C128.19 24.81 130.5 24.78 133.22 24.57C133.65 24.49 134.05 24.29 134.37 23.98C134.58 23.77 134.73 23.51 134.82 23.23C135.09 22.41 135.22 21.55 135.21 20.68C135.24 20.26 135.24 17.73 135.24 17.28ZM125.3 21.13L125.3 16.49L129.74 18.82C128.49 19.51 126.85 20.29 125.3 21.13Z" fill="#000000" fill-opacity="0.200000" fill-rule="nonzero"/>
	</g>
</svg>
