<svg width="42.020020" height="42.020264" viewBox="0 0 42.02 42.0203" fill="none" xmlns="http://www.w3.org/2000/svg" xmlns:xlink="http://www.w3.org/1999/xlink">
	<desc>
			Created with Pixso.
	</desc>
	<defs>
		<clipPath id="clip243_122">
			<rect id="Frame" width="42.020203" height="42.020203" fill="white" fill-opacity="0"/>
		</clipPath>
	</defs>
	<rect id="Frame" width="42.020203" height="42.020203" fill="#FFFFFF" fill-opacity="0"/>
	<g clip-path="url(#clip243_122)">
		<path id="Vector" d="M14.77 32.28C15.54 31.51 16.78 31.51 19.25 31.51L22.76 31.51C25.23 31.51 26.47 31.51 27.24 32.28C28.01 33.05 28.01 34.29 28.01 36.76L28.01 38.51L14 38.51L14 36.76C14 34.29 14 33.05 14.77 32.28Z" stroke="#1A1A1A" stroke-opacity="1.000000" stroke-width="1.500000" stroke-linejoin="round"/>
		<path id="Vector" d="M14.77 32.28C15.54 31.51 16.78 31.51 19.25 31.51L22.76 31.51C25.23 31.51 26.47 31.51 27.24 32.28C28.01 33.05 28.01 34.29 28.01 36.76L28.01 38.51L14 38.51L14 36.76C14 34.29 14 33.05 14.77 32.28Z" stroke="#000000" stroke-opacity="0.200000" stroke-width="1.500000" stroke-linejoin="round"/>
		<path id="Vector" d="M21.01 22.76L21.01 31.51" stroke="#1A1A1A" stroke-opacity="1.000000" stroke-width="1.500000" stroke-linejoin="round" stroke-linecap="round"/>
		<path id="Vector" d="M21.01 22.76L21.01 31.51" stroke="#000000" stroke-opacity="0.200000" stroke-width="1.500000" stroke-linejoin="round" stroke-linecap="round"/>
		<path id="Vector" d="M10.5 38.51L31.51 38.51" stroke="#1A1A1A" stroke-opacity="1.000000" stroke-width="1.500000" stroke-linejoin="round" stroke-linecap="round"/>
		<path id="Vector" d="M10.5 38.51L31.51 38.51" stroke="#000000" stroke-opacity="0.200000" stroke-width="1.500000" stroke-linejoin="round" stroke-linecap="round"/>
		<path id="Vector" d="M24.67 8.74C24.92 9.26 25.59 9.76 26.16 9.85L29.51 10.41C31.65 10.78 32.16 12.34 30.61 13.89L28.01 16.52C27.57 16.96 27.33 17.82 27.46 18.43L28.21 21.68C28.8 24.26 27.44 25.25 25.18 23.91L22.04 22.03C21.48 21.69 20.54 21.69 19.96 22.03L16.82 23.91C14.57 25.25 13.21 24.25 13.8 21.68L14.54 18.43C14.68 17.82 14.44 16.96 14 16.52L11.39 13.89C9.86 12.34 10.35 10.78 12.49 10.41L15.85 9.85C16.4 9.76 17.07 9.26 17.33 8.74L19.18 5.01C20.18 2.99 21.82 2.99 22.82 5.01L24.67 8.74Z" stroke="#1A1A1A" stroke-opacity="1.000000" stroke-width="1.500000" stroke-linejoin="round"/>
		<path id="Vector" d="M24.67 8.74C24.92 9.26 25.59 9.76 26.16 9.85L29.51 10.41C31.65 10.78 32.16 12.34 30.61 13.89L28.01 16.52C27.57 16.96 27.33 17.82 27.46 18.43L28.21 21.68C28.8 24.26 27.44 25.25 25.18 23.91L22.04 22.03C21.48 21.69 20.54 21.69 19.96 22.03L16.82 23.91C14.57 25.25 13.21 24.25 13.8 21.68L14.54 18.43C14.68 17.82 14.44 16.96 14 16.52L11.39 13.89C9.86 12.34 10.35 10.78 12.49 10.41L15.85 9.85C16.4 9.76 17.07 9.26 17.33 8.74L19.18 5.01C20.18 2.99 21.82 2.99 22.82 5.01L24.67 8.74Z" stroke="#000000" stroke-opacity="0.200000" stroke-width="1.500000" stroke-linejoin="round"/>
	</g>
</svg>
