<svg width="72.558105" height="37.607971" viewBox="0 0 72.5581 37.608" fill="none" xmlns="http://www.w3.org/2000/svg" xmlns:xlink="http://www.w3.org/1999/xlink">
	<desc>
			Created with Pixso.
	</desc>
	<defs/>
	<path id="Vector" d="M8.26 17.03L11.47 14.44L14.69 17.03L14.69 37.58L8.26 37.58L8.26 17.03ZM16.52 12.26L19.74 9.67L22.95 12.26L22.95 37.58L16.52 37.58L16.52 12.26ZM24.78 7.41L28 4.82L31.21 7.41L31.21 37.6L24.78 37.6L24.78 7.41ZM33.04 2.59L36.26 0L39.48 2.59L39.48 37.58L33.04 37.58L33.04 2.59ZM41.31 7.41L44.52 4.82L47.74 7.41L47.74 37.6L41.31 37.6L41.31 7.41ZM49.6 12.26L52.81 9.67L56.03 12.26L56.03 37.58L49.6 37.58L49.6 12.26ZM57.86 17.03L61.07 14.44L64.29 17.03L64.29 37.58L57.86 37.58L57.86 17.03ZM66.12 21.8L69.34 19.21L72.55 21.8L72.55 37.58L66.12 37.58L66.12 21.8ZM0 21.8L3.21 19.21L6.43 21.8L6.43 37.58L0 37.58L0 21.8Z" fill="#002B55" fill-opacity="1.000000" fill-rule="evenodd"/>
</svg>
