<svg width="70.000000" height="70.000000" viewBox="0 0 70 70" fill="none" xmlns="http://www.w3.org/2000/svg" xmlns:xlink="http://www.w3.org/1999/xlink">
	<desc>
			Created with Pixso.
	</desc>
	<defs>
		<clipPath id="clip243_417">
			<rect id="Frame" rx="0.000000" width="69.000000" height="69.000000" transform="translate(0.500000 0.500000)" fill="white" fill-opacity="0"/>
		</clipPath>
	</defs>
	<rect id="Frame" rx="0.000000" width="69.000000" height="69.000000" transform="translate(0.500000 0.500000)" fill="#FFFFFF" fill-opacity="0"/>
	<g clip-path="url(#clip243_417)">
		<path id="Vector" d="M11.89 48.19L28.39 38.29M41.59 31.7L58.09 21.79M35 11.89L35 28.39M35 41.59L35 58.09M11.89 21.79L28.39 31.7M41.59 38.29L58.09 48.19" stroke="#1A1A1A" stroke-opacity="1.000000" stroke-width="2.000000" stroke-linejoin="round"/>
		<path id="Vector" d="M11.89 48.19L28.39 38.29M41.59 31.7L58.09 21.79M35 11.89L35 28.39M35 41.59L35 58.09M11.89 21.79L28.39 31.7M41.59 38.29L58.09 48.19" stroke="#000000" stroke-opacity="0.200000" stroke-width="2.000000" stroke-linejoin="round"/>
		<path id="Vector" d="M63.04 25.09L63.04 43.24M39.95 63.04L58.1 53.14M10.25 53.14L30.05 63.04M6.95 44.89L6.95 25.09M10.25 16.84L30.05 6.94M59.75 16.84L39.95 6.94" stroke="#1A1A1A" stroke-opacity="1.000000" stroke-width="2.000000" stroke-linejoin="round"/>
		<path id="Vector" d="M63.04 25.09L63.04 43.24M39.95 63.04L58.1 53.14M10.25 53.14L30.05 63.04M6.95 44.89L6.95 25.09M10.25 16.84L30.05 6.94M59.75 16.84L39.95 6.94" stroke="#000000" stroke-opacity="0.200000" stroke-width="2.000000" stroke-linejoin="round"/>
		<path id="Vector" d="M35 11.89C32.26 11.89 30.04 9.68 30.04 6.94C30.04 4.21 32.26 2 35 2C37.73 2 39.94 4.21 39.94 6.94C39.94 9.68 37.73 11.89 35 11.89Z" stroke="#1A1A1A" stroke-opacity="1.000000" stroke-width="2.000000" stroke-linejoin="round"/>
		<path id="Vector" d="M35 11.89C32.26 11.89 30.04 9.68 30.04 6.94C30.04 4.21 32.26 2 35 2C37.73 2 39.94 4.21 39.94 6.94C39.94 9.68 37.73 11.89 35 11.89Z" stroke="#000000" stroke-opacity="0.200000" stroke-width="2.000000" stroke-linejoin="round"/>
		<path id="Vector" d="M35 68C32.26 68 30.04 65.78 30.04 63.05C30.04 60.31 32.26 58.1 35 58.1C37.73 58.1 39.94 60.31 39.94 63.05C39.94 65.78 37.73 68 35 68Z" stroke="#1A1A1A" stroke-opacity="1.000000" stroke-width="2.000000" stroke-linejoin="round"/>
		<path id="Vector" d="M35 68C32.26 68 30.04 65.78 30.04 63.05C30.04 60.31 32.26 58.1 35 58.1C37.73 58.1 39.94 60.31 39.94 63.05C39.94 65.78 37.73 68 35 68Z" stroke="#000000" stroke-opacity="0.200000" stroke-width="2.000000" stroke-linejoin="round"/>
		<path id="Vector" d="M6.95 25.09C4.21 25.09 2 22.88 2 20.14C2 17.41 4.21 15.2 6.95 15.2C9.68 15.2 11.89 17.41 11.89 20.14C11.89 22.88 9.68 25.09 6.95 25.09Z" stroke="#1A1A1A" stroke-opacity="1.000000" stroke-width="2.000000" stroke-linejoin="round"/>
		<path id="Vector" d="M6.95 25.09C4.21 25.09 2 22.88 2 20.14C2 17.41 4.21 15.2 6.95 15.2C9.68 15.2 11.89 17.41 11.89 20.14C11.89 22.88 9.68 25.09 6.95 25.09Z" stroke="#000000" stroke-opacity="0.200000" stroke-width="2.000000" stroke-linejoin="round"/>
		<path id="Vector" d="M63.05 25.09C60.31 25.09 58.1 22.88 58.1 20.14C58.1 17.41 60.31 15.2 63.05 15.2C65.78 15.2 68 17.41 68 20.14C68 22.88 65.78 25.09 63.05 25.09Z" stroke="#1A1A1A" stroke-opacity="1.000000" stroke-width="2.000000" stroke-linejoin="round"/>
		<path id="Vector" d="M63.05 25.09C60.31 25.09 58.1 22.88 58.1 20.14C58.1 17.41 60.31 15.2 63.05 15.2C65.78 15.2 68 17.41 68 20.14C68 22.88 65.78 25.09 63.05 25.09Z" stroke="#000000" stroke-opacity="0.200000" stroke-width="2.000000" stroke-linejoin="round"/>
		<path id="Vector" d="M63.05 54.79C60.31 54.79 58.1 52.58 58.1 49.84C58.1 47.11 60.31 44.89 63.05 44.89C65.78 44.89 68 47.11 68 49.84C68 52.58 65.78 54.79 63.05 54.79Z" stroke="#1A1A1A" stroke-opacity="1.000000" stroke-width="2.000000" stroke-linejoin="round"/>
		<path id="Vector" d="M63.05 54.79C60.31 54.79 58.1 52.58 58.1 49.84C58.1 47.11 60.31 44.89 63.05 44.89C65.78 44.89 68 47.11 68 49.84C68 52.58 65.78 54.79 63.05 54.79Z" stroke="#000000" stroke-opacity="0.200000" stroke-width="2.000000" stroke-linejoin="round"/>
		<path id="Vector" d="M6.95 54.79C4.21 54.79 2 52.58 2 49.84C2 47.11 4.21 44.89 6.95 44.89C9.68 44.89 11.89 47.11 11.89 49.84C11.89 52.58 9.68 54.79 6.95 54.79Z" stroke="#1A1A1A" stroke-opacity="1.000000" stroke-width="2.000000" stroke-linejoin="round"/>
		<path id="Vector" d="M6.95 54.79C4.21 54.79 2 52.58 2 49.84C2 47.11 4.21 44.89 6.95 44.89C9.68 44.89 11.89 47.11 11.89 49.84C11.89 52.58 9.68 54.79 6.95 54.79Z" stroke="#000000" stroke-opacity="0.200000" stroke-width="2.000000" stroke-linejoin="round"/>
		<path id="Vector" d="M41.6 31.28L41.6 38.71L35 42.42L28.4 38.71L28.4 31.28L35 27.57L41.6 31.28Z" stroke="#1A1A1A" stroke-opacity="1.000000" stroke-width="2.000000" stroke-linejoin="round"/>
		<path id="Vector" d="M41.6 31.28L41.6 38.71L35 42.42L28.4 38.71L28.4 31.28L35 27.57L41.6 31.28Z" stroke="#000000" stroke-opacity="0.200000" stroke-width="2.000000" stroke-linejoin="round"/>
	</g>
</svg>
